<svg width="19" height="19" viewBox="0 0 19 19" fill="none" xmlns="http://www.w3.org/2000/svg">
<path d="M4.53281 6.78447C4.60156 6.71572 4.6875 6.68135 4.79063 6.68135C4.89375 6.68135 4.97969 6.71572 5.04844 6.78447L9.19063 10.9267L13.3328 6.78447C13.4016 6.71572 13.4875 6.68135 13.5906 6.68135C13.6938 6.68135 13.7797 6.71572 13.8484 6.78447L14.1062 7.04228C14.175 7.11103 14.2094 7.19697 14.2094 7.3001C14.2094 7.40322 14.175 7.48916 14.1062 7.55791L9.44844 12.2157C9.37969 12.2845 9.29375 12.3188 9.19063 12.3188C9.0875 12.3188 9.00156 12.2845 8.93281 12.2157L4.275 7.55791C4.20625 7.48916 4.17188 7.40322 4.17188 7.3001C4.17188 7.19697 4.20625 7.11103 4.275 7.04228L4.53281 6.78447Z" fill="white"/>
</svg>
